<svg xmlns="http://www.w3.org/2000/svg" viewBox="0 0 960 520">
  <rect width="960" height="520" fill="#eef2f7"/>
  <rect x="56" y="48" width="540" height="388" rx="22" fill="#ffffff" stroke="#cbd5e1" stroke-width="2"/>
  <rect x="56" y="48" width="540" height="54" rx="22" fill="#1f2937"/>
  <text x="84" y="82" font-size="24" font-family="Segoe UI, Arial, sans-serif" fill="#f8fafc">GoldView 设置</text>

  <rect x="84" y="126" width="146" height="40" rx="12" fill="#fff7db" stroke="#c58b0d" stroke-width="1.5"/>
  <text x="108" y="152" font-size="18" font-family="Segoe UI, Arial, sans-serif" fill="#7c5400">数据更新设置</text>

  <rect x="248" y="126" width="118" height="40" rx="12" fill="#f8fafc" stroke="#cbd5e1" stroke-width="1.5"/>
  <text x="278" y="152" font-size="18" font-family="Segoe UI, Arial, sans-serif" fill="#334155">显示设置</text>

  <text x="96" y="208" font-size="18" font-family="Segoe UI, Arial, sans-serif" fill="#0f172a">自动调度</text>
  <rect x="246" y="188" width="250" height="34" rx="10" fill="#eef6f2" stroke="#22a06b" stroke-width="1.5"/>
  <text x="266" y="210" font-size="16" font-family="Segoe UI, Arial, sans-serif" fill="#166534">启用自动调度</text>

  <text x="96" y="262" font-size="18" font-family="Segoe UI, Arial, sans-serif" fill="#0f172a">首选源</text>
  <rect x="246" y="240" width="250" height="34" rx="10" fill="#f8fafc" stroke="#94a3b8" stroke-width="1.5"/>
  <text x="264" y="262" font-size="16" font-family="Segoe UI, Arial, sans-serif" fill="#334155">Gold API</text>

  <text x="96" y="316" font-size="18" font-family="Segoe UI, Arial, sans-serif" fill="#0f172a">当前活跃源</text>
  <text x="246" y="316" font-size="18" font-family="Segoe UI, Arial, sans-serif" fill="#24543b">XWTeam GJ_Au</text>

  <text x="96" y="358" font-size="18" font-family="Segoe UI, Arial, sans-serif" fill="#0f172a">最近切源原因</text>
  <text x="246" y="358" font-size="16" font-family="Segoe UI, Arial, sans-serif" fill="#475569">15 秒未变价，切到更活跃的备用源</text>

  <rect x="640" y="78" width="264" height="84" rx="18" fill="#1f2937" stroke="#0f172a" stroke-width="2"/>
  <text x="688" y="126" font-size="28" font-family="Consolas, monospace" fill="#f1c40f">2345.67</text>

  <rect x="640" y="196" width="264" height="210" rx="18" fill="#ffffff" stroke="#cbd5e1" stroke-width="2"/>
  <text x="668" y="230" font-size="22" font-family="Segoe UI, Arial, sans-serif" fill="#0f172a">效果摘要</text>
  <text x="668" y="268" font-size="17" font-family="Segoe UI, Arial, sans-serif" fill="#334155">1 秒请求一次</text>
  <text x="668" y="300" font-size="17" font-family="Segoe UI, Arial, sans-serif" fill="#334155">目标 2-3 秒有效更新</text>
  <text x="668" y="332" font-size="17" font-family="Segoe UI, Arial, sans-serif" fill="#334155">设置即时持久化</text>
  <text x="668" y="364" font-size="17" font-family="Segoe UI, Arial, sans-serif" fill="#334155">任务栏样式即时刷新</text>
</svg>
