<svg xmlns="http://www.w3.org/2000/svg" viewBox="0 0 920 480">
  <rect width="920" height="480" fill="#f8fafc"/>
  <rect x="34" y="34" width="184" height="58" rx="16" fill="#1f2937"/>
  <text x="72" y="70" font-size="28" font-family="Segoe UI, Arial, sans-serif" fill="#f8fafc">GoldView</text>

  <rect x="82" y="148" width="200" height="70" rx="18" fill="#fff7db" stroke="#c58b0d" stroke-width="2"/>
  <text x="112" y="190" font-size="22" font-family="Segoe UI, Arial, sans-serif" fill="#7c5400">托盘菜单</text>

  <rect x="362" y="92" width="230" height="78" rx="18" fill="#eef6f2" stroke="#24543b" stroke-width="2"/>
  <text x="392" y="136" font-size="22" font-family="Segoe UI, Arial, sans-serif" fill="#24543b">设置窗口</text>

  <rect x="362" y="214" width="230" height="94" rx="18" fill="#ffffff" stroke="#94a3b8" stroke-width="2"/>
  <text x="390" y="254" font-size="20" font-family="Segoe UI, Arial, sans-serif" fill="#0f172a">数据更新设置</text>
  <text x="390" y="286" font-size="16" font-family="Segoe UI, Arial, sans-serif" fill="#334155">自动调度 / 首选源 / Benchmark</text>

  <rect x="362" y="332" width="230" height="94" rx="18" fill="#ffffff" stroke="#94a3b8" stroke-width="2"/>
  <text x="406" y="372" font-size="20" font-family="Segoe UI, Arial, sans-serif" fill="#0f172a">显示设置</text>
  <text x="392" y="404" font-size="16" font-family="Segoe UI, Arial, sans-serif" fill="#334155">字体 / 颜色 / 对齐 / 预览</text>

  <rect x="674" y="148" width="186" height="76" rx="18" fill="#fff7db" stroke="#c58b0d" stroke-width="2"/>
  <text x="704" y="192" font-size="20" font-family="Segoe UI, Arial, sans-serif" fill="#7c5400">均价计算器</text>

  <rect x="674" y="280" width="186" height="92" rx="18" fill="#1f2937" stroke="#0f172a" stroke-width="2"/>
  <text x="712" y="324" font-size="22" font-family="Consolas, monospace" fill="#f1c40f">2345.67</text>
  <text x="700" y="352" font-size="16" font-family="Segoe UI, Arial, sans-serif" fill="#cbd5e1">任务栏固定显示</text>

  <path d="M282 184 H362" stroke="#64748b" stroke-width="3" fill="none"/>
  <path d="M592 130 H674" stroke="#64748b" stroke-width="3" fill="none"/>
  <path d="M592 352 H674" stroke="#64748b" stroke-width="3" fill="none"/>
</svg>
